PathFileType	4	(X/Y/Z)	C:/Users/beibeiliu/ov580/test_trc/User2\sequence.2_training_dense_left.trc
DataRate	CameraRate	NumFrames	NumMarkers	Units	OrigDataRate	OrigDataStartFrame	OrigNumFrames
120	120	8	19	mm	120	154	307
Frame#	Time	ThumbCMC			ThumbMCP			ThumbIP			ThumbTip			IndexMCP			IndexPIP			IndexTip			MiddleMCP			MiddlePIP			MiddleTip			RingMCP			RingPIP			RingTip			PinkyMCP			PinkyPIP			PinkyTip			BackHand1			BackHand2			BackHand3	
		X0	Y0	Z0	X1	Y1	Z1	X2	Y2	Z2	X3	Y3	Z3	X4	Y4	Z4	X5	Y5	Z5	X6	Y6	Z6	X7	Y7	Z7	X8	Y8	Z8	X9	Y9	Z9	X10	Y10	Z10	X11	Y11	Z11	X12	Y12	Z12	X13	Y13	Z13	X14	Y14	Z14	X15	Y15	Z15	X16	Y16	Z16	X17	Y17	Z17	X18	Y18	Z18	
153	1.275	-226.891	6.03349	114.544	-227.721	-10.3602	80.5717	-238.837	-13.1246	47.8212	-253.684	-13.6897	26.4234	-240.572	54.3653	53.2561	-245.687	35.9246	20.9144	-256.301	3.02471	27.5316	-260.332	58.0218	45.038	-270.689	33.7889	20.6643	-270.799	-4.2755	31.1166	-286.085	54.7187	53.9621	-288.454	29.0274	28.8768	-282.513	-1.19754	40.7862	-299.198	45.6841	65.3381	-301.239	20.1446	41.5592	-295.44	-6.84793	50.7452	-280.782	55.285	114.57	-276.046	43.5587	150.792	-242.597	45.752	129.916	
154	1.28333	-230.609	7.58343	110.271	-234.89	-10.9449	75.2076	-249.304	-17.0849	41.6646	-271.191	-14.1408	28.7191	-250.955	52.3894	43.0841	-264.294	34.0872	20.4947	-270.13	1.96299	25.6476	-277.01	54.86	45.9009	-284.079	28.4413	20.7718	-283.15	-10.2295	36.1233	-292.977	50.4619	54.3316	-303.274	22.801	33.0141	-295.279	-7.09243	46.9275	-312.138	43.0935	69.6792	-310.149	17.5707	45.0159	-306.68	-8.89825	54.6195	-282.107	54.285	116.126	-276.271	44.2025	150.447	-244.615	46.5291	121.515	
155	1.29167	-232.623	7.3824	108.727	-246.269	-9.3913	75.6696	-260.673	-20.6921	45.1138	-285.261	-19.1241	27.5334	-261.509	48.2942	42.7863	-276.111	28.0464	17.038	-281.889	-5.29234	26.1448	-287.853	51.0214	45.1535	-298.046	18.5569	23.5862	-296.644	-13.499	41.0938	-304.972	45.9426	54.3259	-316.891	19.897	36.978	-304.213	-11.609	52.4155	-319.963	38.8572	69.9036	-325.141	12.8908	51.7095	-316.167	-14.767	58.8717	-285.668	55.1057	115.491	-274.084	48.0822	149.611	-250.029	49.1583	121.541	
156	1.3	-236.619	8.41296	103.125	-249.706	-10.4249	75.8823	-268.022	-23.3606	44.9039	-291.966	-26.6242	31.0513	-277.612	45.7566	41.2374	-290.943	25.8618	20.6698	-292.741	-7.55021	29.3057	-300.773	46.8342	44.3517	-311.266	16.2155	27.7364	-304.896	-18.4308	48.6711	-318.911	42.7207	55.795	-321.688	13.9925	40.1895	-310.84	-14.9395	58.9068	-324.645	36.7651	77.4102	-331.278	11.8878	56.8274	-324.67	-18.8518	65.3023	-291.331	54.1314	114.404	-275.556	48.8241	145.351	-255.164	49.8089	114.593	
157	1.30833	-234.652	7.54679	103.701	-249.533	-14.0073	78.0689	-271.907	-26.4396	47.6364	-298.458	-26.3038	38.0492	-277.952	43.8127	40.1584	-294.933	23.4207	21.7446	-295.752	-12.2305	31.3132	-304.221	45.55	48.9922	-315.299	12.3709	29.5251	-307.311	-21.2436	54.0174	-323.457	40.3045	59.9923	-327.782	12.3184	44.6839	-314.356	-16.5818	64.0266	-331.461	35.8962	77.9146	-336.097	9.37747	60.1699	-321.851	-17.4862	70.3881	-295.441	55.3297	114.884	-278.374	50.7829	146.162	-251.4	48.7184	113.81	
158	1.31667	-237.124	8.91259	102.252	-249.44	-14.2359	73.7702	-271.051	-25.6884	52.1196	-295.779	-29.0262	38.8581	-280.65	43.1285	39.6193	-295.925	20.156	22.0371	-297.04	-12.037	33.8353	-303.129	43.6054	43.3412	-315.466	14.9344	29.8278	-309.105	-18.8983	51.8274	-322.953	40.0558	56.3224	-327.098	12.0997	44.1296	-316.691	-15.5523	62.0937	-331.834	36.9838	77.6079	-339.222	10.3582	62.4839	-323.595	-18.284	73.7359	-290.736	54.2422	116.685	-276.613	52.4408	146.578	-250.833	50.6743	112.117	
159	1.325	-230.901	7.76577	104.28	-244.669	-13.5001	72.2081	-266.831	-24.0518	46.2678	-291.422	-26.2351	34.8351	-268.817	43.7597	39.4102	-288.224	18.7521	19.1488	-290.395	-8.99625	33.561	-296.236	47.0203	45.7193	-310.696	14.6801	29.011	-301.749	-18.3283	49.1053	-315.557	42.8501	56.8397	-319.747	14.673	40.1239	-308.269	-13.3539	59.2219	-323.351	39.9645	74.7544	-329.36	13.5275	57.1755	-318.431	-13.7513	64.6613	-286.699	57.4336	115.649	-273.436	54.2478	144.016	-249.429	51.4669	112.303	
160	1.33333	-225.762	8.24419	107.868	-234.957	-11.553	75.4062	-253.174	-23.6766	44.8209	-279.416	-22.5044	27.926	-259.832	46.8391	38.2617	-272.286	24.8098	16.9213	-274.832	-10.0027	31.5656	-281.42	48.073	39.1108	-293.811	17.5941	23.0652	-290.52	-17.2164	45.9287	-300.092	46.4578	52.6986	-310.511	15.1525	35.6724	-300.202	-10.2824	52.8858	-314.709	42.0562	71.0768	-320.062	12.5152	49.4575	-305.716	-13.8819	61.3449	-277.499	58.4386	108.28	-265.877	51.386	141.679	-238.67	51.0309	114.886	
